<?xml version="1.0" standalone="no"?>
<!DOCTYPE svg PUBLIC "-//W3C//DTD SVG 20010904//EN"
 "http://www.w3.org/TR/2001/REC-SVG-20010904/DTD/svg10.dtd">
<svg version="1.0" xmlns="http://www.w3.org/2000/svg"
 width="572.000000pt" height="689.000000pt" viewBox="0 0 572.000000 689.000000"
 preserveAspectRatio="xMidYMid meet">

<g transform="translate(0.000000,689.000000) scale(0.100000,-0.100000)"
fill="#000000" stroke="none">
<path d="M4090 6860 c-106 -38 -142 -71 -172 -159 -19 -55 -23 -87 -23 -194 0
-125 0 -127 -22 -127 -20 0 -21 -3 -13 -25 5 -14 7 -31 4 -38 -3 -8 4 -37 16
-66 11 -28 20 -61 20 -72 0 -12 13 -33 29 -48 36 -34 55 -119 49 -215 -5 -83
-25 -106 -134 -157 -86 -40 -270 -154 -292 -182 -7 -8 -26 -19 -42 -22 -30 -7
-112 -103 -132 -155 -73 -187 -76 -368 -8 -483 21 -35 21 -41 11 -200 -13
-216 -36 -366 -66 -433 -51 -115 -95 -331 -95 -465 0 -72 -6 -111 -34 -202
-18 -61 -39 -141 -46 -176 -13 -60 -15 -64 -54 -82 -23 -10 -52 -19 -66 -19
-14 0 -37 -8 -51 -18 -35 -24 -169 -171 -169 -185 2 -49 92 -65 112 -21 11 23
57 39 59 20 3 -30 -4 -78 -21 -151 -40 -167 -34 -237 22 -243 20 -2 25 -7 21
-23 -3 -10 -1 -20 3 -20 41 -6 67 -2 80 12 12 13 22 15 38 9 16 -6 29 -3 46
10 16 12 29 15 36 9 13 -11 54 2 71 22 6 8 13 30 15 49 6 41 25 123 40 165 6
17 19 55 30 85 16 45 19 71 14 143 l-5 87 71 148 c155 324 191 410 224 532 24
87 34 148 35 200 2 174 28 210 37 51 4 -76 1 -100 -27 -199 -32 -112 -46 -244
-31 -287 4 -11 1 -37 -6 -58 -22 -63 -44 -195 -50 -302 -3 -55 -12 -134 -20
-175 -7 -43 -12 -107 -9 -150 16 -266 95 -756 137 -850 9 -19 21 -87 27 -150
7 -63 16 -133 21 -155 5 -21 5 -44 1 -50 -9 -10 -26 -101 -36 -191 -4 -29 -2
-94 4 -145 5 -52 13 -132 16 -179 3 -48 19 -127 35 -180 15 -52 38 -137 50
-189 11 -51 34 -126 50 -166 27 -67 70 -218 70 -244 0 -6 -11 -11 -25 -11 -41
0 -80 -60 -78 -120 2 -75 3 -80 23 -80 13 0 20 -7 20 -19 0 -10 6 -21 14 -24
8 -3 21 -30 30 -59 24 -84 47 -100 149 -101 77 -2 88 0 111 22 16 15 26 35 26
52 0 16 8 44 17 63 15 32 15 45 4 118 -7 46 -23 126 -36 178 -36 145 -49 310
-31 390 8 36 17 110 21 165 3 55 11 129 17 165 19 121 5 361 -28 456 -12 35
-12 50 1 115 8 41 19 182 24 314 11 260 29 455 43 455 4 0 8 -28 8 -62 0 -35
9 -92 20 -128 14 -47 20 -95 20 -170 1 -128 32 -370 55 -427 15 -37 15 -44 1
-65 -22 -34 -55 -161 -66 -252 -11 -92 11 -458 36 -621 17 -104 16 -169 -5
-461 -14 -188 0 -280 45 -306 38 -22 140 -26 180 -7 38 18 54 53 54 117 0 28
4 52 8 52 12 0 34 84 27 102 -4 9 -2 19 4 23 23 14 11 56 -28 94 -28 28 -38
44 -35 62 2 13 11 74 19 134 18 124 23 146 70 300 31 99 81 304 105 427 5 26
12 134 15 240 4 106 8 199 11 206 2 7 6 79 9 160 7 174 8 184 34 332 11 63 22
158 25 210 4 52 13 152 22 221 15 122 15 226 2 539 -5 111 -36 290 -58 329 -6
13 -6 28 0 48 11 30 -7 134 -50 292 -12 46 -20 103 -19 150 0 42 3 69 5 61 3
-8 12 -31 19 -50 8 -19 16 -60 18 -90 11 -125 88 -315 194 -476 18 -28 54 -96
80 -150 44 -94 47 -105 53 -209 7 -115 23 -166 66 -218 13 -15 29 -47 35 -70
6 -23 17 -50 25 -61 8 -11 14 -30 14 -41 0 -46 63 -64 79 -22 9 22 9 21 16 -6
10 -36 50 -54 74 -33 15 14 18 13 29 -4 17 -28 60 -26 73 3 6 13 20 27 31 32
26 12 29 26 28 144 0 61 -5 103 -15 120 -8 14 -18 46 -24 71 -5 25 -13 55 -17
68 -6 22 -5 23 61 20 63 -3 68 -1 88 25 29 38 16 60 -53 87 -14 5 -32 14 -40
19 -48 29 -151 71 -174 71 -53 0 -63 14 -109 157 -40 123 -46 151 -51 258 -5
108 -10 132 -52 254 -26 74 -57 151 -70 171 -14 22 -27 65 -34 115 -7 44 -16
98 -20 120 -6 24 -5 58 1 83 6 28 6 92 0 178 -9 124 -8 138 9 167 10 18 24 67
30 109 15 100 -4 182 -71 321 -55 113 -102 177 -130 177 -11 0 -50 21 -86 46
-36 26 -86 53 -111 62 -25 8 -64 25 -86 38 -23 13 -48 24 -58 24 -29 0 -106
96 -113 142 -13 76 -8 199 9 211 28 22 85 163 90 221 4 53 3 58 -20 68 -17 8
-23 17 -19 27 52 134 20 296 -76 389 -69 67 -111 85 -209 89 -75 3 -95 0 -170
-27z m286 -18 c91 -46 174 -178 174 -274 0 -23 -12 -90 -26 -149 -16 -65 -23
-115 -19 -126 6 -14 10 -9 18 25 13 55 37 57 37 1 0 -24 -14 -73 -37 -125 -32
-75 -53 -104 -53 -73 0 5 -5 7 -10 4 -15 -9 -11 -207 6 -261 21 -70 74 -129
134 -149 27 -9 52 -20 55 -25 3 -5 29 -16 58 -26 28 -9 84 -38 122 -64 39 -27
79 -51 91 -54 35 -11 72 -58 120 -156 63 -129 84 -217 72 -307 -5 -37 -18 -85
-29 -106 -18 -35 -19 -48 -10 -179 9 -140 9 -148 -25 -265 -7 -24 10 -33 19
-10 3 6 6 1 7 -13 5 -81 32 -192 52 -220 10 -14 30 -56 44 -95 60 -160 71
-209 78 -330 6 -106 12 -137 54 -264 50 -153 55 -159 124 -166 14 -1 50 -13
80 -27 29 -14 81 -39 115 -54 35 -16 63 -33 63 -38 0 -5 -7 -17 -16 -27 -20
-23 -89 -16 -147 13 -22 11 -41 18 -43 16 -2 -2 8 -21 22 -41 14 -21 33 -71
44 -112 10 -41 24 -83 30 -94 11 -21 14 -151 4 -188 -10 -38 -20 -26 -37 45
-23 96 -40 142 -54 142 -11 0 -4 -44 12 -70 11 -18 32 -123 30 -151 -2 -28
-12 -49 -24 -49 -5 0 -26 50 -47 110 -37 109 -57 150 -68 139 -3 -3 5 -41 19
-85 30 -96 33 -147 8 -142 -11 2 -27 28 -43 69 -14 36 -30 74 -37 85 -19 31
-28 7 -15 -41 15 -56 15 -82 1 -91 -14 -8 -29 14 -29 42 0 12 -6 27 -14 33 -8
7 -17 27 -20 46 -4 18 -22 56 -41 84 -43 63 -65 142 -65 238 0 66 -5 83 -47
175 -26 57 -66 132 -89 168 -115 183 -174 330 -190 476 -3 30 -13 72 -21 92
-22 52 -18 163 11 307 36 178 65 499 45 510 -11 7 -19 -35 -19 -100 0 -100
-19 -249 -60 -465 -58 -305 -58 -300 -10 -487 34 -128 41 -169 37 -218 -3 -32
-2 -66 3 -75 20 -37 52 -232 56 -340 11 -265 11 -401 -2 -505 -7 -60 -18 -171
-23 -245 -6 -74 -19 -178 -29 -230 -12 -57 -23 -164 -27 -265 -3 -93 -8 -173
-11 -177 -3 -4 -7 -87 -9 -185 -3 -98 -7 -198 -11 -223 -10 -86 -76 -366 -109
-471 -40 -124 -51 -170 -72 -299 -18 -113 -24 -401 -9 -412 6 -4 11 -37 11
-72 0 -84 -12 -97 -96 -103 -52 -3 -70 0 -95 15 -28 18 -32 27 -43 97 -6 42
-9 81 -6 86 4 5 6 37 6 71 0 35 4 99 9 143 21 173 22 230 6 315 -39 217 -59
593 -37 708 16 78 41 163 59 195 15 25 15 31 -1 76 -24 69 -58 329 -56 436 1
65 -4 110 -20 165 -11 41 -21 96 -21 122 0 26 -7 76 -15 112 -12 49 -14 109
-11 253 l4 188 29 -2 c15 -1 62 -5 104 -9 75 -7 129 -1 129 14 0 4 -42 7 -93
8 -50 0 -109 6 -129 13 -42 14 -40 5 -38 146 1 59 -2 87 -9 80 -9 -10 -20
-101 -21 -181 0 -40 -1 -41 -51 -57 -61 -20 -150 -21 -202 -3 -50 18 -59 0
-10 -21 48 -20 162 -20 222 2 l43 15 -5 -268 c-3 -163 -12 -312 -22 -382 -9
-63 -18 -194 -20 -290 -4 -195 -10 -270 -27 -347 -9 -44 -8 -63 5 -110 20 -76
37 -201 37 -283 0 -65 -20 -271 -42 -425 -6 -44 -13 -100 -16 -125 -6 -58 15
-236 39 -325 10 -38 25 -111 34 -162 14 -83 14 -96 0 -129 -8 -20 -15 -49 -15
-64 0 -47 -32 -65 -108 -62 -37 1 -75 5 -85 8 -24 8 -53 69 -62 131 -5 38 -11
52 -26 56 -16 4 -18 11 -13 51 9 62 -11 61 -24 -1 l-10 -48 -1 51 c-1 55 16
89 46 89 10 0 17 6 16 13 -2 6 2 12 7 12 7 0 9 -17 5 -45 -3 -27 0 -55 7 -68
6 -12 14 -37 17 -56 7 -40 31 -55 31 -19 0 13 -8 41 -18 63 -13 29 -16 55 -12
98 6 65 -29 223 -69 312 -12 28 -36 106 -52 175 -17 69 -41 159 -53 200 -15
46 -27 116 -31 180 -4 58 -11 137 -15 175 -5 41 -5 101 1 145 10 78 27 148 28
118 1 -21 21 -25 21 -4 0 8 -6 49 -14 92 -19 102 -38 257 -36 286 4 43 0 58
-15 58 -8 0 -15 2 -15 5 0 3 -13 68 -29 144 -81 382 -119 841 -69 841 7 0 9
22 5 58 -8 98 17 299 49 392 4 12 6 13 14 0 18 -30 21 0 5 44 -24 64 -16 202
20 311 39 123 37 221 -9 356 -47 139 -90 351 -111 557 -10 93 -29 79 -21 -15
10 -107 52 -352 77 -443 24 -86 24 -86 14 -245 -9 -147 -51 -326 -105 -445
-84 -187 -223 -476 -236 -491 -11 -12 -11 -18 -1 -28 23 -23 14 -167 -14 -241
-27 -69 -59 -192 -59 -225 0 -26 -18 -45 -43 -45 -14 0 -17 4 -12 18 4 9 10
48 13 86 4 54 2 68 -8 64 -13 -4 -49 -115 -50 -154 0 -20 -17 -34 -42 -34 -9
0 -7 110 4 170 2 8 -1 17 -6 20 -14 7 -44 -88 -45 -140 -1 -46 -14 -70 -38
-70 -21 0 -13 153 12 231 4 12 2 19 -7 19 -20 0 -48 -86 -48 -146 0 -36 -4
-54 -15 -57 -8 -4 -17 -1 -21 4 -10 17 -5 138 6 160 6 10 19 70 29 132 11 61
24 124 30 139 6 17 7 29 1 33 -9 6 -30 -33 -30 -55 0 -5 -6 -7 -13 -4 -16 6
-64 -18 -80 -40 -17 -23 -60 -25 -65 -4 -2 12 26 47 80 101 77 78 87 84 135
91 70 9 107 44 116 110 4 27 23 103 42 168 28 93 35 135 35 201 0 104 32 283
71 396 55 157 71 229 79 351 1 9 5 6 10 -7 5 -13 14 -23 21 -23 7 0 8 7 4 18
-19 49 -26 128 -20 232 7 114 6 116 -24 181 -26 53 -32 83 -37 157 -5 94 -1
115 52 268 23 66 89 147 132 162 20 7 40 19 44 27 5 7 36 30 71 51 34 20 69
43 77 50 9 7 61 35 115 62 113 56 154 93 165 149 6 34 -1 142 -14 223 -3 14
-5 30 -5 36 -1 7 -9 11 -18 10 -17 -1 -30 20 -53 84 -18 50 -25 120 -11 120 6
0 11 -10 11 -22 0 -29 15 -54 24 -40 3 6 1 34 -6 64 -6 29 -12 103 -12 163 -1
181 42 273 144 311 135 50 239 56 316 16z m243 -6373 c7 10 9 10 14 -2 3 -7 1
-20 -4 -28 -5 -8 -9 -30 -10 -49 0 -19 -4 -44 -8 -55 -9 -22 -21 59 -20 130 0
37 1 38 10 15 7 -18 12 -21 18 -11z"/>
<path d="M1252 6824 c-72 -19 -100 -35 -149 -86 -44 -45 -57 -71 -74 -147 -13
-56 -13 -194 0 -239 8 -26 7 -34 -5 -39 -21 -8 -18 -102 6 -154 11 -24 20 -54
20 -66 0 -12 8 -27 18 -32 25 -13 42 -94 42 -202 l0 -89 -37 -35 c-22 -21
-104 -68 -193 -111 -85 -42 -162 -81 -170 -88 -8 -8 -27 -16 -42 -20 -42 -10
-99 -66 -123 -121 -47 -104 -67 -218 -64 -345 3 -98 7 -121 23 -138 16 -18 19
-42 22 -169 2 -81 9 -192 16 -247 9 -78 9 -105 -1 -130 -25 -59 -103 -331
-118 -411 -8 -44 -16 -118 -17 -165 -2 -61 -14 -133 -45 -257 l-43 -172 -52
-21 c-28 -12 -71 -35 -96 -50 -25 -16 -73 -37 -107 -47 l-63 -18 0 -42 c0 -48
-3 -47 106 -44 58 1 62 0 68 -24 4 -14 2 -33 -3 -43 -15 -30 -34 -154 -36
-242 -1 -72 1 -88 19 -107 10 -13 27 -23 37 -23 9 0 19 -9 22 -20 7 -26 41
-26 68 1 17 17 23 18 36 8 13 -11 20 -8 48 23 22 23 37 32 43 26 5 -5 20 -8
33 -6 19 2 26 12 32 43 9 39 35 123 83 258 26 74 30 131 14 187 -9 31 -4 49
54 185 35 82 91 225 126 318 35 92 64 166 66 164 2 -2 -1 -19 -7 -38 -6 -19
-10 -65 -10 -104 0 -38 -6 -89 -14 -113 -9 -26 -15 -81 -15 -143 0 -60 -5
-109 -12 -122 -21 -38 -36 -195 -36 -381 0 -170 2 -191 39 -380 22 -109 42
-202 44 -206 2 -4 23 -69 46 -146 32 -108 42 -158 44 -226 2 -48 8 -109 14
-136 10 -39 9 -67 -4 -148 -27 -166 -7 -473 40 -604 9 -25 23 -76 31 -115 8
-38 28 -112 43 -165 116 -386 114 -549 -9 -637 -81 -58 -83 -61 -76 -106 4
-23 12 -48 19 -56 22 -26 79 -42 167 -48 103 -7 159 2 167 25 4 9 21 31 38 48
47 47 70 101 55 129 -8 14 -9 29 -3 39 10 19 -18 257 -37 301 -20 49 -30 173
-19 255 5 41 23 172 39 292 36 258 38 373 9 493 -11 48 -24 121 -29 163 -8 71
-7 84 21 172 25 76 31 112 30 180 0 47 -5 99 -10 116 -6 22 -5 50 5 90 8 37
12 102 11 174 -2 63 0 147 3 185 5 67 6 68 13 30 4 -22 13 -65 19 -95 7 -30
13 -95 14 -145 1 -49 6 -100 11 -113 5 -13 5 -57 1 -100 -15 -145 8 -336 48
-414 19 -37 18 -92 -5 -136 -59 -117 -64 -332 -17 -757 31 -291 32 -314 5
-412 -18 -64 -22 -106 -22 -234 l0 -156 39 -47 c59 -71 86 -83 198 -89 86 -5
102 -4 142 16 38 18 44 25 39 44 -4 16 -1 23 10 23 9 0 15 9 15 24 0 17 -25
52 -82 111 l-82 86 -8 121 c-10 157 9 268 104 598 91 317 116 452 118 641 1
92 -3 161 -11 187 -13 45 -12 57 31 412 12 96 27 209 35 250 31 168 45 350 45
616 1 290 -13 410 -59 518 -12 27 -19 57 -16 67 3 10 2 35 -3 56 -6 21 -13 58
-16 83 -5 45 -5 45 9 15 8 -16 30 -70 51 -120 102 -254 128 -313 171 -391 45
-85 46 -87 49 -192 3 -109 8 -129 64 -232 18 -35 47 -147 42 -164 -5 -15 30
-46 51 -46 11 0 25 8 32 17 11 15 14 14 30 -10 21 -32 71 -38 78 -9 3 14 6 12
17 -10 7 -14 21 -28 31 -31 20 -5 49 21 49 46 0 10 8 17 19 17 48 0 56 190 14
324 -31 98 -27 109 31 101 62 -10 101 1 115 31 19 43 14 51 -40 64 -29 7 -98
35 -155 61 -57 27 -112 49 -124 49 -11 0 -20 3 -20 8 0 4 -20 99 -44 212 -25
113 -59 302 -76 420 -33 227 -42 266 -84 370 -26 64 -27 69 -27 298 0 220 1
235 21 267 33 53 30 219 -5 340 -38 131 -82 206 -131 225 -21 8 -71 36 -110
62 -39 25 -120 65 -180 89 -80 32 -125 57 -169 94 l-60 51 -5 85 c-5 92 5 159
25 159 8 0 27 25 44 56 24 44 30 68 31 122 2 92 2 92 -16 92 -13 0 -15 7 -9
43 4 23 11 50 16 59 5 9 9 42 9 74 0 45 -7 72 -35 128 -40 81 -63 110 -121
148 -85 55 -196 71 -302 42z m255 -45 c69 -33 110 -76 149 -156 34 -69 40
-121 21 -191 -8 -31 -18 -76 -22 -99 -6 -39 -5 -41 14 -36 19 5 21 1 21 -49 0
-63 -35 -145 -61 -140 -12 2 -21 -17 -38 -74 -14 -50 -31 -84 -48 -100 -18
-16 -23 -28 -17 -34 7 -7 17 -4 29 10 32 36 38 24 31 -59 -4 -50 -3 -82 4 -86
5 -3 10 1 10 9 0 24 13 19 46 -15 39 -41 89 -70 214 -121 58 -24 133 -62 166
-85 34 -23 73 -45 88 -49 75 -19 156 -229 156 -407 0 -92 -9 -120 -56 -183
-29 -38 -30 -47 -3 -39 21 7 21 6 19 -212 l-2 -218 36 -93 c35 -87 74 -293
101 -522 6 -54 93 -448 102 -462 2 -5 13 -8 23 -8 10 0 63 -21 117 -46 54 -26
123 -54 153 -63 l54 -17 -23 -23 c-20 -20 -29 -22 -80 -16 -48 5 -59 4 -73
-12 -16 -18 -16 -23 7 -96 30 -92 43 -247 25 -292 -11 -29 -12 -29 -26 -11 -8
11 -14 32 -14 46 0 32 -28 131 -41 144 -19 21 -19 -6 3 -123 17 -93 19 -124
10 -133 -9 -9 -15 -3 -27 25 -8 20 -15 51 -15 69 0 37 -44 138 -60 138 -13 0
-13 1 11 -93 21 -83 19 -127 -5 -127 -19 0 -56 79 -56 121 0 35 -33 89 -46 76
-4 -4 -2 -36 5 -71 13 -65 8 -110 -11 -104 -11 4 -29 62 -47 146 -4 23 -20 59
-33 80 -38 58 -48 98 -48 197 0 90 -1 94 -51 196 -54 109 -113 245 -180 414
-22 55 -48 116 -58 135 -16 28 -19 56 -19 150 0 72 -6 141 -16 184 -16 67 -16
75 4 180 38 202 48 307 44 426 -3 63 -5 129 -6 145 0 17 3 40 7 53 14 42 -12
22 -35 -28 -23 -49 -23 -50 -4 -64 17 -13 19 -26 17 -138 -2 -126 -7 -174 -45
-385 -21 -117 -21 -124 -5 -200 11 -49 19 -146 22 -258 6 -212 15 -295 39
-350 43 -99 51 -183 50 -520 -1 -329 -7 -407 -53 -664 -11 -58 -24 -160 -31
-226 -6 -66 -15 -154 -21 -195 -17 -137 -23 -270 -11 -270 6 0 13 15 15 33 2
17 5 -28 5 -102 3 -180 -20 -307 -113 -633 -96 -336 -116 -445 -111 -603 2
-78 9 -132 19 -155 8 -19 45 -64 81 -99 68 -66 77 -81 51 -81 -11 0 -14 -9
-13 -32 3 -26 -2 -35 -25 -47 -26 -15 -29 -15 -43 3 -12 17 -14 18 -14 3 0
-29 -44 -25 -78 6 l-23 21 -6 -22 c-6 -26 -11 -27 -61 -7 -24 10 -53 34 -76
64 l-37 49 1 119 c0 125 8 193 34 311 15 66 15 84 2 190 -8 64 -18 151 -22
192 -3 41 -12 131 -20 200 -24 211 -14 374 28 490 11 30 22 67 25 82 3 15 9
26 13 23 19 -12 20 17 1 44 -71 99 -93 338 -55 588 4 25 1 33 -11 33 -12 0
-15 13 -15 64 0 36 -5 77 -11 93 -18 46 -39 266 -45 473 -4 107 -10 199 -15
205 -5 5 -9 -91 -10 -225 0 -129 -2 -242 -3 -250 -4 -18 -19 -236 -19 -265 0
-11 1 -42 3 -70 4 -79 1 -125 -9 -125 -5 0 -11 14 -15 30 -3 17 -10 30 -16 30
-14 0 -13 -7 16 -121 35 -136 31 -222 -20 -373 -40 -121 -43 -141 -21 -132 11
4 15 -2 15 -27 0 -18 9 -70 21 -117 38 -155 34 -280 -16 -605 -40 -259 -41
-352 -5 -470 26 -84 44 -268 29 -296 -8 -15 -8 -24 0 -32 17 -17 14 -60 -3
-54 -10 4 -17 -3 -21 -23 -4 -17 -17 -38 -29 -47 -12 -10 -25 -25 -28 -35 -9
-21 -83 -34 -103 -18 -12 10 -18 10 -30 0 -11 -9 -20 -9 -44 3 -18 9 -33 11
-39 5 -12 -12 -42 1 -42 18 0 8 -9 13 -22 11 -17 -2 -23 5 -29 32 -9 43 -3 58
24 65 35 10 107 85 124 130 9 22 17 82 19 131 3 76 -2 113 -31 235 -19 80 -46
181 -60 225 -14 44 -34 116 -45 160 -11 44 -29 114 -40 155 -13 48 -24 135
-31 245 -8 144 -7 186 7 278 14 89 14 118 5 167 -7 33 -11 91 -10 128 1 38 -5
88 -14 117 -107 340 -159 588 -162 775 -3 170 14 398 31 432 9 18 15 69 17
145 2 76 8 127 16 142 9 16 13 52 12 96 -2 56 5 93 28 164 25 78 28 97 19 129
-6 22 -8 90 -5 167 5 113 2 144 -19 250 -22 103 -53 350 -54 423 0 15 6 22 20
22 18 0 18 2 -6 68 -14 37 -30 71 -35 76 -14 15 -11 -27 5 -65 10 -24 11 -40
4 -62 -15 -42 6 -287 37 -437 21 -101 26 -150 25 -255 0 -71 -5 -155 -9 -185
-9 -59 -132 -389 -233 -626 l-61 -144 13 -55 c16 -66 7 -115 -44 -245 -19 -47
-40 -113 -46 -147 -8 -41 -17 -63 -27 -63 -11 0 -12 13 -7 68 10 96 10 94 -2
99 -17 6 -67 -116 -54 -133 12 -14 2 -42 -23 -63 -18 -15 -26 1 -21 44 2 17 6
58 10 93 4 40 3 62 -4 62 -14 0 -51 -113 -59 -178 -5 -49 -25 -73 -39 -50 -11
17 -5 108 11 169 17 62 19 89 6 89 -9 0 -36 -107 -45 -179 -7 -53 -8 -54 -30
-38 -30 22 -22 198 15 319 6 20 9 52 5 72 l-7 36 -84 0 c-47 0 -85 4 -85 9 0
28 18 43 69 57 31 9 70 27 86 40 17 12 59 34 95 49 l66 27 47 191 c36 147 47
209 46 262 -1 39 5 104 14 145 25 118 93 353 120 412 14 29 21 58 17 63 -14
18 -22 98 -28 276 -7 164 -6 176 10 171 27 -7 22 13 -8 33 -40 26 -54 73 -54
177 0 150 58 339 120 391 31 26 46 31 83 28 10 -2 17 4 17 14 0 10 57 43 175
100 112 54 180 93 190 109 10 15 23 22 33 19 16 -4 17 5 14 99 -2 77 0 99 8
86 12 -20 30 -24 30 -7 0 6 -11 25 -24 42 -16 21 -29 57 -36 102 -11 71 -19
90 -28 67 -6 -20 -42 64 -49 116 -5 38 -3 44 16 49 25 6 25 2 5 71 -20 69 -14
216 12 283 31 81 94 133 193 160 87 24 166 17 248 -22z m-1106 -3970 c-5 -13
-10 -19 -10 -12 -1 15 10 45 15 40 3 -2 0 -15 -5 -28z"/>
</g>
</svg>
